REM DIRINDEX 1\5,1\2\6,1\2\7,1\3\8,1\3\9,1\4\10,1\4\11,1\4\12
REM DIRNAME cjc026,folder01,folder02,folder03,folder04,folder05,folder06,folder07,folder08,folder09,folder10,folder11
TITLE ""
FILE "EJE_DB3000_5th_4B_48.mp3" MP3
  TRACK 01 AUDIO
    TITLE "0:"
    INDEX 01 00:00:00
  TRACK 02 AUDIO
    TITLE "10:cjc026_10041"
    INDEX 01 00:00:08
  TRACK 03 AUDIO
    TITLE "0:"
    INDEX 01 00:01:30
  TRACK 04 AUDIO
    TITLE "11:cjc026_10042"
    INDEX 01 00:01:65
  TRACK 05 AUDIO
    TITLE "0:"
    INDEX 01 00:04:07
  TRACK 06 AUDIO
    TITLE "12:cjc026_10043"
    INDEX 01 00:04:45
  TRACK 07 AUDIO
    TITLE "0:"
    INDEX 01 00:05:67
  TRACK 08 AUDIO
    TITLE "10:cjc026_10044"
    INDEX 01 00:06:27
  TRACK 09 AUDIO
    TITLE "0:"
    INDEX 01 00:07:50
  TRACK 10 AUDIO
    TITLE "11:cjc026_10045"
    INDEX 01 00:08:10
  TRACK 11 AUDIO
    TITLE "0:"
    INDEX 01 00:10:24
  TRACK 12 AUDIO
    TITLE "12:cjc026_10046"
    INDEX 01 00:10:62
  TRACK 13 AUDIO
    TITLE "0:"
    INDEX 01 00:12:12
  TRACK 14 AUDIO
    TITLE "10:cjc026_10047"
    INDEX 01 00:12:45
  TRACK 15 AUDIO
    TITLE "0:"
    INDEX 01 00:14:16
  TRACK 16 AUDIO
    TITLE "11:cjc026_10048"
    INDEX 01 00:14:51
  TRACK 17 AUDIO
    TITLE "0:"
    INDEX 01 00:17:18
  TRACK 18 AUDIO
    TITLE "12:cjc026_10049"
    INDEX 01 00:17:56
  TRACK 19 AUDIO
    TITLE "0:"
    INDEX 01 00:19:27
  TRACK 20 AUDIO
    TITLE "10:cjc026_10050"
    INDEX 01 00:19:62
  TRACK 21 AUDIO
    TITLE "0:"
    INDEX 01 00:23:08
  TRACK 22 AUDIO
    TITLE "11:cjc026_10051"
    INDEX 01 00:23:43
  TRACK 23 AUDIO
    TITLE "0:"
    INDEX 01 00:25:09
  TRACK 24 AUDIO
    TITLE "12:cjc026_10052"
    INDEX 01 00:25:44
  TRACK 25 AUDIO
    TITLE "0:"
    INDEX 01 00:28:65
  TRACK 26 AUDIO
    TITLE "10:cjc026_10053"
    INDEX 01 00:29:25
  TRACK 27 AUDIO
    TITLE "0:"
    INDEX 01 00:30:63
  TRACK 28 AUDIO
    TITLE "11:cjc026_10054"
    INDEX 01 00:31:24
  TRACK 29 AUDIO
    TITLE "0:"
    INDEX 01 00:32:57
  TRACK 30 AUDIO
    TITLE "12:cjc026_10055"
    INDEX 01 00:33:14
  TRACK 31 AUDIO
    TITLE "0:"
    INDEX 01 00:34:55
  TRACK 32 AUDIO
    TITLE "10:cjc026_10056"
    INDEX 01 00:35:15
  TRACK 33 AUDIO
    TITLE "0:"
    INDEX 01 00:36:45
  TRACK 34 AUDIO
    TITLE "11:cjc026_10057"
    INDEX 01 00:37:06
  TRACK 35 AUDIO
    TITLE "0:"
    INDEX 01 00:38:47
  TRACK 36 AUDIO
    TITLE "12:cjc026_10058"
    INDEX 01 00:39:07
  TRACK 37 AUDIO
    TITLE "0:"
    INDEX 01 00:40:40
  TRACK 38 AUDIO
    TITLE "10:cjc026_10059"
    INDEX 01 00:41:03
  TRACK 39 AUDIO
    TITLE "0:"
    INDEX 01 00:42:65
  TRACK 40 AUDIO
    TITLE "11:cjc026_10060"
    INDEX 01 00:43:25
  TRACK 41 AUDIO
    TITLE "0:"
    INDEX 01 00:44:61
  TRACK 42 AUDIO
    TITLE "12:cjc026_10061"
    INDEX 01 00:45:24
  TRACK 43 AUDIO
    TITLE "0:"
    INDEX 01 00:47:14
  TRACK 44 AUDIO
    TITLE "10:cjc026_10062"
    INDEX 01 00:47:49
  TRACK 45 AUDIO
    TITLE "0:"
    INDEX 01 00:49:34
  TRACK 46 AUDIO
    TITLE "11:cjc026_10063"
    INDEX 01 00:49:69
  TRACK 47 AUDIO
    TITLE "0:"
    INDEX 01 00:51:38
  TRACK 48 AUDIO
    TITLE "12:cjc026_10064"
    INDEX 01 00:52:01
  TRACK 49 AUDIO
    TITLE "0:"
    INDEX 01 00:53:61
  TRACK 50 AUDIO
    TITLE "10:cjc026_10065"
    INDEX 01 00:54:24
  TRACK 51 AUDIO
    TITLE "0:"
    INDEX 01 00:55:73
  TRACK 52 AUDIO
    TITLE "11:cjc026_10066"
    INDEX 01 00:56:36
  TRACK 53 AUDIO
    TITLE "0:"
    INDEX 01 00:58:05
  TRACK 54 AUDIO
    TITLE "12:cjc026_10067"
    INDEX 01 00:58:40
  TRACK 55 AUDIO
    TITLE "0:"
    INDEX 01 01:00:17
  TRACK 56 AUDIO
    TITLE "10:cjc026_10068"
    INDEX 01 01:00:54
  TRACK 57 AUDIO
    TITLE "0:"
    INDEX 01 01:02:15
  TRACK 58 AUDIO
    TITLE "11:cjc026_10069"
    INDEX 01 01:02:50
  TRACK 59 AUDIO
    TITLE "0:"
    INDEX 01 01:04:41
  TRACK 60 AUDIO
    TITLE "12:cjc026_10070"
    INDEX 01 01:05:03
  TRACK 61 AUDIO
    TITLE "0:"
    INDEX 01 01:06:39
  TRACK 62 AUDIO
    TITLE "10:cjc026_10071"
    INDEX 01 01:06:74
  TRACK 63 AUDIO
    TITLE "0:"
    INDEX 01 01:08:40
  TRACK 64 AUDIO
    TITLE "11:cjc026_10072"
    INDEX 01 01:09:03
  TRACK 65 AUDIO
    TITLE "0:"
    INDEX 01 01:10:50
  TRACK 66 AUDIO
    TITLE "12:cjc026_10073"
    INDEX 01 01:11:10
  TRACK 67 AUDIO
    TITLE "0:"
    INDEX 01 01:12:51
  TRACK 68 AUDIO
    TITLE "10:cjc026_10074"
    INDEX 01 01:13:11
  TRACK 69 AUDIO
    TITLE "0:"
    INDEX 01 01:14:36
  TRACK 70 AUDIO
    TITLE "11:cjc026_10075"
    INDEX 01 01:14:71
  TRACK 71 AUDIO
    TITLE "0:"
    INDEX 01 01:17:24
  TRACK 72 AUDIO
    TITLE "12:cjc026_10076"
    INDEX 01 01:17:59
  TRACK 73 AUDIO
    TITLE "0:"
    INDEX 01 01:19:09
